<mxfile host="app.diagrams.net" modified="2024-05-13T19:03:45.538Z" agent="Mozilla/5.0 (X11; Linux x86_64; rv:125.0) Gecko/20100101 Firefox/125.0" etag="bZyMZAChdSN0CDP0R7EX" version="24.3.1" type="device">
  <diagram name="Página-1" id="Qf7hXA5ncmAFnnY7FIsh">
    <mxGraphModel dx="1434" dy="790" grid="1" gridSize="10" guides="1" tooltips="1" connect="1" arrows="1" fold="1" page="1" pageScale="1" pageWidth="827" pageHeight="1169" math="0" shadow="0">
      <root>
        <mxCell id="0" />
        <mxCell id="1" parent="0" />
        <mxCell id="XATWsW7TDy5cOZRVU1lJ-1" value="Inserção" style="ellipse;whiteSpace=wrap;html=1;" vertex="1" parent="1">
          <mxGeometry x="440" y="180" width="120" height="80" as="geometry" />
        </mxCell>
        <mxCell id="XATWsW7TDy5cOZRVU1lJ-2" value="Busca" style="ellipse;whiteSpace=wrap;html=1;" vertex="1" parent="1">
          <mxGeometry x="440" y="270" width="120" height="80" as="geometry" />
        </mxCell>
        <mxCell id="XATWsW7TDy5cOZRVU1lJ-4" style="edgeStyle=orthogonalEdgeStyle;rounded=0;orthogonalLoop=1;jettySize=auto;html=1;entryX=0;entryY=0.5;entryDx=0;entryDy=0;" edge="1" parent="1" source="XATWsW7TDy5cOZRVU1lJ-3" target="XATWsW7TDy5cOZRVU1lJ-1">
          <mxGeometry relative="1" as="geometry" />
        </mxCell>
        <mxCell id="XATWsW7TDy5cOZRVU1lJ-5" style="edgeStyle=orthogonalEdgeStyle;rounded=0;orthogonalLoop=1;jettySize=auto;html=1;entryX=0;entryY=0.5;entryDx=0;entryDy=0;" edge="1" parent="1" source="XATWsW7TDy5cOZRVU1lJ-3" target="XATWsW7TDy5cOZRVU1lJ-2">
          <mxGeometry relative="1" as="geometry" />
        </mxCell>
        <mxCell id="XATWsW7TDy5cOZRVU1lJ-3" value="Cliente" style="shape=umlActor;verticalLabelPosition=bottom;verticalAlign=top;html=1;outlineConnect=0;" vertex="1" parent="1">
          <mxGeometry x="330" y="240" width="30" height="60" as="geometry" />
        </mxCell>
      </root>
    </mxGraphModel>
  </diagram>
</mxfile>
